<mxfile host="app.diagrams.net" agent="Mozilla/5.0 (Windows NT 10.0; Win64; x64) AppleWebKit/537.36 (KHTML, like Gecko) Chrome/137.0.0.0 Safari/537.36" version="27.2.0">
  <diagram name="Page-1" id="kSz0KgD7QdN_tB5z6Zff">
    <mxGraphModel dx="524" dy="278" grid="1" gridSize="10" guides="1" tooltips="1" connect="1" arrows="1" fold="1" page="1" pageScale="1" pageWidth="480" pageHeight="270" math="0" shadow="0">
      <root>
        <mxCell id="0" />
        <mxCell id="1" parent="0" />
        <mxCell id="iksNBhayXR3x9wg8TAR7-1" value="" style="rounded=0;whiteSpace=wrap;html=1;strokeColor=#333333;fillColor=#333333;" parent="1" vertex="1">
          <mxGeometry width="480" height="270" as="geometry" />
        </mxCell>
        <mxCell id="5yjQKc8OgQAJKvg6Jhwq-4" style="edgeStyle=orthogonalEdgeStyle;rounded=0;orthogonalLoop=1;jettySize=auto;html=1;fillColor=#d5e8d4;strokeColor=#66FF66;" parent="1" source="iksNBhayXR3x9wg8TAR7-2" target="5yjQKc8OgQAJKvg6Jhwq-1" edge="1">
          <mxGeometry relative="1" as="geometry" />
        </mxCell>
        <mxCell id="5yjQKc8OgQAJKvg6Jhwq-5" style="edgeStyle=orthogonalEdgeStyle;rounded=0;orthogonalLoop=1;jettySize=auto;html=1;entryX=0.5;entryY=0;entryDx=0;entryDy=0;strokeColor=#66FF66;" parent="1" source="iksNBhayXR3x9wg8TAR7-2" target="5yjQKc8OgQAJKvg6Jhwq-2" edge="1">
          <mxGeometry relative="1" as="geometry" />
        </mxCell>
        <mxCell id="5yjQKc8OgQAJKvg6Jhwq-6" style="edgeStyle=orthogonalEdgeStyle;rounded=0;orthogonalLoop=1;jettySize=auto;html=1;strokeColor=#66FF66;" parent="1" source="iksNBhayXR3x9wg8TAR7-2" target="5yjQKc8OgQAJKvg6Jhwq-3" edge="1">
          <mxGeometry relative="1" as="geometry" />
        </mxCell>
        <mxCell id="iksNBhayXR3x9wg8TAR7-2" value="&lt;font style=&quot;&quot;&gt;&lt;br&gt;&lt;font style=&quot;font-size: 8px;&quot;&gt;{&amp;nbsp; &amp;nbsp; &amp;nbsp; &amp;nbsp; &amp;nbsp; &amp;nbsp; &amp;nbsp; &amp;nbsp; &amp;nbsp; &amp;nbsp; &amp;nbsp;&lt;br&gt;int RollNo;&lt;br&gt;&amp;nbsp; &amp;nbsp;String Name;&lt;br&gt;}&amp;nbsp; &amp;nbsp; &amp;nbsp; &amp;nbsp; &amp;nbsp;&lt;/font&gt;&lt;/font&gt;&lt;font style=&quot;font-size: 9px;&quot;&gt; &amp;nbsp; &amp;nbsp; &amp;nbsp; &amp;nbsp; &amp;nbsp;&amp;nbsp;&lt;/font&gt;" style="rounded=0;whiteSpace=wrap;html=1;fillColor=#fff2cc;strokeColor=#d6b656;" parent="1" vertex="1">
          <mxGeometry x="180" y="20" width="120" height="80" as="geometry" />
        </mxCell>
        <mxCell id="iksNBhayXR3x9wg8TAR7-3" value="&lt;span style=&quot;font-size: 8px;&quot;&gt;&lt;br&gt;{&amp;nbsp; &amp;nbsp; &amp;nbsp; &amp;nbsp; &amp;nbsp; &amp;nbsp; &amp;nbsp; &amp;nbsp; &amp;nbsp; &amp;nbsp; &amp;nbsp;&lt;/span&gt;&lt;br style=&quot;font-size: 8px;&quot;&gt;&lt;span style=&quot;font-size: 8px;&quot;&gt;int RollNo;&lt;/span&gt;&lt;br style=&quot;font-size: 8px;&quot;&gt;&lt;span style=&quot;font-size: 8px;&quot;&gt;&amp;nbsp; &amp;nbsp;String Name;&lt;br&gt;&lt;/span&gt;&lt;span style=&quot;font-size: 8px;&quot;&gt;}&amp;nbsp; &amp;nbsp; &amp;nbsp; &amp;nbsp; &amp;nbsp; &amp;nbsp; &amp;nbsp; &amp;nbsp; &amp;nbsp; &amp;nbsp; &amp;nbsp;&amp;nbsp;&lt;/span&gt;" style="rounded=0;whiteSpace=wrap;html=1;fillColor=#dae8fc;strokeColor=#6c8ebf;" parent="1" vertex="1">
          <mxGeometry x="20" y="170" width="120" height="80" as="geometry" />
        </mxCell>
        <mxCell id="iksNBhayXR3x9wg8TAR7-6" value="&lt;b&gt;&lt;font style=&quot;color: rgb(255, 51, 51);&quot;&gt;StudentClass&lt;/font&gt;&lt;/b&gt;" style="text;html=1;align=center;verticalAlign=middle;whiteSpace=wrap;rounded=0;" parent="1" vertex="1">
          <mxGeometry x="190" y="20" width="100" height="30" as="geometry" />
        </mxCell>
        <mxCell id="iksNBhayXR3x9wg8TAR7-7" value="&lt;b&gt;&lt;font style=&quot;font-size: 10px; color: rgb(255, 51, 51);&quot;&gt;student1 Object&lt;/font&gt;&lt;/b&gt;" style="text;html=1;align=center;verticalAlign=middle;whiteSpace=wrap;rounded=0;" parent="1" vertex="1">
          <mxGeometry x="30" y="170" width="100" height="30" as="geometry" />
        </mxCell>
        <mxCell id="iksNBhayXR3x9wg8TAR7-9" value="&lt;span style=&quot;font-size: 8px;&quot;&gt;&lt;br&gt;{&amp;nbsp; &amp;nbsp; &amp;nbsp; &amp;nbsp; &amp;nbsp; &amp;nbsp; &amp;nbsp; &amp;nbsp; &amp;nbsp; &amp;nbsp; &amp;nbsp;&lt;/span&gt;&lt;br style=&quot;font-size: 8px;&quot;&gt;&lt;span style=&quot;font-size: 8px;&quot;&gt;int RollNo;&lt;/span&gt;&lt;br style=&quot;font-size: 8px;&quot;&gt;&lt;span style=&quot;font-size: 8px;&quot;&gt;&amp;nbsp; &amp;nbsp;String Name;&lt;br&gt;&lt;/span&gt;&lt;span style=&quot;font-size: 8px;&quot;&gt;}&amp;nbsp; &amp;nbsp; &amp;nbsp; &amp;nbsp; &amp;nbsp; &amp;nbsp; &amp;nbsp; &amp;nbsp; &amp;nbsp; &amp;nbsp; &amp;nbsp;&amp;nbsp;&lt;/span&gt;" style="rounded=0;whiteSpace=wrap;html=1;fillColor=#dae8fc;strokeColor=#6c8ebf;" parent="1" vertex="1">
          <mxGeometry x="180" y="170" width="120" height="80" as="geometry" />
        </mxCell>
        <mxCell id="iksNBhayXR3x9wg8TAR7-10" value="&lt;span style=&quot;font-size: 8px;&quot;&gt;&lt;br&gt;{&amp;nbsp; &amp;nbsp; &amp;nbsp; &amp;nbsp; &amp;nbsp; &amp;nbsp; &amp;nbsp; &amp;nbsp; &amp;nbsp; &amp;nbsp; &amp;nbsp;&lt;/span&gt;&lt;br style=&quot;font-size: 8px;&quot;&gt;&lt;span style=&quot;font-size: 8px;&quot;&gt;int RollNo;&lt;/span&gt;&lt;br style=&quot;font-size: 8px;&quot;&gt;&lt;span style=&quot;font-size: 8px;&quot;&gt;&amp;nbsp; &amp;nbsp;String Name;&lt;br&gt;&lt;/span&gt;&lt;span style=&quot;font-size: 8px;&quot;&gt;}&amp;nbsp; &amp;nbsp; &amp;nbsp; &amp;nbsp; &amp;nbsp; &amp;nbsp; &amp;nbsp; &amp;nbsp; &amp;nbsp; &amp;nbsp; &amp;nbsp;&amp;nbsp;&lt;/span&gt;" style="rounded=0;whiteSpace=wrap;html=1;fillColor=#dae8fc;strokeColor=#6c8ebf;" parent="1" vertex="1">
          <mxGeometry x="340" y="170" width="120" height="80" as="geometry" />
        </mxCell>
        <mxCell id="iksNBhayXR3x9wg8TAR7-11" value="&lt;b&gt;&lt;font style=&quot;font-size: 10px; color: rgb(255, 51, 51);&quot;&gt;student2 Object&lt;/font&gt;&lt;/b&gt;" style="text;html=1;align=center;verticalAlign=middle;whiteSpace=wrap;rounded=0;" parent="1" vertex="1">
          <mxGeometry x="190" y="170" width="100" height="30" as="geometry" />
        </mxCell>
        <mxCell id="iksNBhayXR3x9wg8TAR7-12" value="&lt;b&gt;&lt;font style=&quot;font-size: 10px; color: rgb(255, 51, 51);&quot;&gt;student3 Object&lt;/font&gt;&lt;/b&gt;" style="text;html=1;align=center;verticalAlign=middle;whiteSpace=wrap;rounded=0;" parent="1" vertex="1">
          <mxGeometry x="350" y="170" width="100" height="30" as="geometry" />
        </mxCell>
        <mxCell id="5yjQKc8OgQAJKvg6Jhwq-7" style="edgeStyle=orthogonalEdgeStyle;rounded=0;orthogonalLoop=1;jettySize=auto;html=1;entryX=0.5;entryY=0;entryDx=0;entryDy=0;strokeColor=#FF3333;" parent="1" source="5yjQKc8OgQAJKvg6Jhwq-1" target="iksNBhayXR3x9wg8TAR7-7" edge="1">
          <mxGeometry relative="1" as="geometry" />
        </mxCell>
        <mxCell id="5yjQKc8OgQAJKvg6Jhwq-1" value="&lt;font style=&quot;font-size: 6px;&quot;&gt;StudentClass &lt;b&gt;&lt;font style=&quot;color: rgb(255, 51, 51);&quot;&gt;student1&lt;/font&gt;&lt;/b&gt; = new StudentClass();&lt;/font&gt;" style="rounded=1;whiteSpace=wrap;html=1;fillColor=#66FF66;" parent="1" vertex="1">
          <mxGeometry x="15" y="125" width="130" height="20" as="geometry" />
        </mxCell>
        <mxCell id="5yjQKc8OgQAJKvg6Jhwq-8" style="edgeStyle=orthogonalEdgeStyle;rounded=0;orthogonalLoop=1;jettySize=auto;html=1;entryX=0.5;entryY=0;entryDx=0;entryDy=0;strokeColor=#FF3333;" parent="1" source="5yjQKc8OgQAJKvg6Jhwq-2" target="iksNBhayXR3x9wg8TAR7-11" edge="1">
          <mxGeometry relative="1" as="geometry" />
        </mxCell>
        <mxCell id="5yjQKc8OgQAJKvg6Jhwq-2" value="&lt;font style=&quot;font-size: 6px;&quot;&gt;StudentClass &lt;b&gt;&lt;font style=&quot;color: rgb(255, 51, 51);&quot;&gt;student2&lt;/font&gt;&lt;/b&gt; = new StudentClass();&lt;/font&gt;" style="rounded=1;whiteSpace=wrap;html=1;fillColor=#66FF66;" parent="1" vertex="1">
          <mxGeometry x="175" y="125" width="130" height="20" as="geometry" />
        </mxCell>
        <mxCell id="5yjQKc8OgQAJKvg6Jhwq-9" style="edgeStyle=orthogonalEdgeStyle;rounded=0;orthogonalLoop=1;jettySize=auto;html=1;entryX=0.5;entryY=0;entryDx=0;entryDy=0;strokeColor=#FF3333;" parent="1" source="5yjQKc8OgQAJKvg6Jhwq-3" target="iksNBhayXR3x9wg8TAR7-12" edge="1">
          <mxGeometry relative="1" as="geometry" />
        </mxCell>
        <mxCell id="5yjQKc8OgQAJKvg6Jhwq-3" value="&lt;font style=&quot;font-size: 6px;&quot;&gt;StudentClass &lt;b&gt;&lt;font style=&quot;color: rgb(255, 51, 51);&quot;&gt;student3&lt;/font&gt;&lt;/b&gt;&amp;nbsp;= new StudentClass();&lt;/font&gt;" style="rounded=1;whiteSpace=wrap;html=1;fillColor=#66FF66;" parent="1" vertex="1">
          <mxGeometry x="335" y="125" width="130" height="20" as="geometry" />
        </mxCell>
      </root>
    </mxGraphModel>
  </diagram>
</mxfile>
